<?xml version="1.0" encoding="UTF-8"?><svg id="Layer_2" xmlns="http://www.w3.org/2000/svg" viewBox="0 0 376.19 409.52"><defs><style>.cls-1{fill:#00174a;stroke-width:0px;}</style></defs><path class="cls-1" d="M356.47,171.04c-11.25-20.22-17.2-43.14-17.2-66.28V39.99c0-5.52-4.48-10-10-10s-10,4.48-10,10v64.77c0,3.96.17,7.91.47,11.84h-87.28V10c0-5.52-4.48-10-10-10s-10,4.48-10,10v116.62c0,16.05-1.68,32.14-5.01,47.84l-5.53,26.12c-3.61,17.06-5.44,34.55-5.44,51.98v96.99c0,6.94,2.7,13.46,7.63,18.39,4.91,4.89,11.43,7.58,18.34,7.58,2.05,0,4.05-.24,5.97-.69v2.46c0,6.91,2.69,13.42,7.62,18.37,4.91,4.89,11.43,7.58,18.35,7.58,4.36,0,8.46-1.08,12.07-2.98.47.56.97,1.11,1.5,1.63,4.89,4.89,11.51,7.61,18.39,7.61.59,0,1.17-.02,1.76-.06,10.44-.71,19.14-7.75,22.58-17.29,3.05.93,6.29,1.3,9.55,1.05,13.44-1.02,23.98-12.63,23.98-26.42v-57.32c2.58.61,5.25.83,7.96.62,13.45-1.02,23.98-12.63,23.98-26.42v-36.63c0-26.53-6.82-52.82-19.72-76ZM356.19,283.67c0,3.34-2.46,6.25-5.49,6.48-1.76.14-3.46-.5-4.69-1.72-1.13-1.13-1.76-2.63-1.76-4.23v-36.53c0-5.52-4.48-10-10-10-16.47,0-32.58-25.56-32.58-44.64,0-5.52-4.48-10-10-10s-10,4.48-10,10c0,25.84,18.27,56.41,42.58,63.24v110.53c0,3.34-2.46,6.25-5.49,6.48-1.76.13-3.46-.49-4.71-1.76-1.12-1.11-1.74-2.6-1.74-4.2v-81.81c0-5.52-4.48-10-10-10s-10,4.48-10,10v97.56c0,3.34-2.48,6.23-5.52,6.43-2.38.15-3.95-1.02-4.65-1.72-1.13-1.14-1.76-2.64-1.76-4.23v-98.03c0-5.52-4.48-10-10-10s-10,4.48-10,10v91.78c0,3.28-2.68,5.96-5.97,5.96-1.6,0-3.11-.62-4.21-1.72-1.13-1.14-1.76-2.64-1.76-4.23v-91.78c0-5.52-4.48-10-10-10s-10,4.48-10,10v64.04c0,3.29-2.68,5.97-5.97,5.97-1.59,0-3.09-.62-4.21-1.74-1.13-1.13-1.76-2.63-1.76-4.23v-96.99c0-16.05,1.68-32.14,5-47.84l5.53-26.12c3.27-15.43,5.06-31.22,5.37-47h89.22c3,17.19,8.85,33.85,17.37,49.16,11.25,20.22,17.2,43.14,17.2,66.28v36.63Z"/><path class="cls-1" d="M168.73,174.46c-3.32-15.7-5-31.79-5-47.84V10c0-5.52-4.48-10-10-10s-10,4.48-10,10v106.6H56.44c.3-3.94.47-7.89.47-11.84V39.99c0-5.52-4.48-10-10-10s-10,4.48-10,10v64.77c0,23.14-5.95,46.06-17.19,66.28C6.82,194.22,0,220.51,0,247.04v36.63c0,13.79,10.53,25.4,23.98,26.42,2.7.2,5.39-.01,7.96-.62v57.32c0,13.79,10.53,25.4,23.98,26.42,3.27.25,6.5-.12,9.55-1.05,3.44,9.54,12.14,16.58,22.58,17.29.59.04,1.18.06,1.76.06,6.88,0,13.5-2.72,18.41-7.63.52-.52,1.01-1.06,1.48-1.61,3.61,1.9,7.72,2.98,12.07,2.98,6.92,0,13.44-2.69,18.39-7.62,4.89-4.91,7.58-11.43,7.58-18.34v-2.46c1.92.45,3.92.69,5.97.69,6.91,0,13.42-2.69,18.36-7.6,4.91-4.91,7.61-11.43,7.61-18.37v-96.99c0-17.44-1.83-34.93-5.44-51.98l-5.53-26.12ZM159.69,349.56c0,1.59-.62,3.1-1.74,4.21-1.14,1.14-2.65,1.76-4.23,1.76-3.29,0-5.97-2.68-5.97-5.97v-64.04c0-5.52-4.48-10-10-10s-10,4.48-10,10v91.78c0,1.59-.62,3.09-1.72,4.2-1.14,1.13-2.65,1.76-4.25,1.76-3.29,0-5.97-2.67-5.97-5.96v-91.78c0-5.52-4.48-10-10-10s-10,4.48-10,10v98.03c0,1.59-.62,3.09-1.74,4.21-.72.72-2.28,1.89-4.66,1.74-3.04-.21-5.52-3.09-5.52-6.43v-97.56c0-5.52-4.48-10-10-10s-10,4.48-10,10v81.81c0,1.59-.62,3.08-1.78,4.23-1.22,1.23-2.93,1.85-4.67,1.72-3.03-.23-5.49-3.14-5.49-6.48v-110.53c24.31-6.83,42.58-37.4,42.58-63.24,0-5.52-4.48-10-10-10s-10,4.48-10,10c0,19.08-16.11,44.64-32.58,44.64-5.52,0-10,4.48-10,10v36.53c0,1.59-.62,3.1-1.76,4.23-1.23,1.23-2.94,1.86-4.69,1.72-3.03-.23-5.49-3.14-5.49-6.48v-36.63c0-23.14,5.95-46.06,17.2-66.28,8.52-15.31,14.36-31.97,17.37-49.16h89.22c.31,15.78,2.11,31.57,5.37,47l5.53,26.12c3.32,15.7,5.01,31.79,5.01,47.84v96.99Z"/></svg>