<?xml version="1.0" encoding="UTF-8"?><svg id="Layer_2" xmlns="http://www.w3.org/2000/svg" viewBox="0 0 240.54 391.74"><defs><style>.cls-1{fill:#00174a;stroke-width:0px;}</style></defs><path class="cls-1" d="M120.27,0C53.95,0,0,53.95,0,120.27c0,37.45,16.99,72.11,46.62,95.1,12.23,9.49,19.25,23.6,19.25,38.72v10.97c-5.13,3.59-8.5,9.54-8.5,16.27v17.03c0,3.59.97,6.95,2.65,9.86-1.67,2.91-2.65,6.27-2.65,9.86v17.03c0,10.95,8.91,19.86,19.86,19.86h7.23v16.9c0,10.95,8.91,19.86,19.86,19.86h30.4c10.95,0,19.86-8.91,19.86-19.86v-16.9h7.23c10.95,0,19.86-8.91,19.86-19.86v-17.03c0-3.59-.97-6.95-2.65-9.86,1.67-2.91,2.65-6.27,2.65-9.86v-17.03c0-6.73-3.37-12.67-8.5-16.27v-9.84c0-15.33,7.18-29.57,19.7-39.07,30.28-22.97,47.65-57.92,47.65-95.88C240.54,53.95,186.59,0,120.27,0ZM161.69,298.22h-84.32v-16.76h84.32v16.76ZM134.59,371.74h-30.13v-16.76h30.13v16.76ZM161.69,334.98h-84.32v-16.76h84.32v16.76ZM180.8,200.22c-17.29,13.12-27.62,33.68-27.62,55v2.78h-67.32v-3.91c0-21.35-9.84-41.22-26.99-54.53-24.71-19.17-38.88-48.07-38.88-79.29,0-55.29,44.98-100.27,100.27-100.27s100.27,44.98,100.27,100.27c0,31.65-14.48,60.79-39.74,79.95Z"/><path class="cls-1" d="M155.22,59.41c-.22-.13-.46-.25-.7-.35-16.91-7.43-35.7-7.83-52.9-1.13-17.21,6.7-30.77,19.7-38.2,36.6,0,0,0,0,0,0-23.8,54.16.9,117.59,55.06,141.39.98.43,2.01.64,3.01.64,2.88,0,5.63-1.67,6.87-4.48,1.67-3.79-.06-8.22-3.85-9.88-46.59-20.47-67.83-75.03-47.36-121.62,5.82-13.24,16.44-23.42,29.92-28.66,13.38-5.21,27.99-4.93,41.15.77.09.04.17.09.26.13,7.5,3.29,13.26,9.31,16.23,16.94,2.97,7.63,2.79,15.96-.5,23.46,0,0,0,0,0,0-1.72,3.91-4.85,6.91-8.83,8.46-3.98,1.55-8.32,1.46-12.23-.26-.1-.05-.2-.1-.3-.15.55.09,1.11.15,1.66.15,4.02,0,7.85-2.33,9.57-6.24.11-.24.2-.48.28-.73,2.36-6.34-.42-13.48-6.45-16.55-.22-.13-.45-.24-.69-.34-3.99-1.75-8.42-1.85-12.48-.27-3.99,1.55-7.14,4.55-8.91,8.44-.03.07-.07.13-.1.2-4.92,11.19.19,24.3,11.38,29.22,3.99,1.75,8.22,2.63,12.45,2.63,3.8,0,7.6-.71,11.25-2.13,7.71-3,13.79-8.83,17.12-16.4,0,0,0,0,0,0,4.91-11.16,5.17-23.57.75-34.93-4.33-11.12-12.65-19.93-23.47-24.9Z"/></svg>